<svg width="150" height="30" viewBox="0 0 150 30" fill="none" xmlns="http://www.w3.org/2000/svg">
<path d="M22.5022 13.1661C22.0832 13.5951 21.7622 14.1128 21.5623 14.6823C21.3624 15.2519 21.2883 15.8593 21.3455 16.4613L21.3256 16.441C21.3844 17.1496 21.2905 17.8628 21.0504 18.5306C20.8104 19.1985 20.4299 19.805 19.9357 20.3078C19.4414 20.8107 18.8453 21.1977 18.1888 21.4419C17.5324 21.6862 16.8314 21.7817 16.1349 21.7219L16.1548 21.7421C15.3217 21.6633 14.4849 21.8477 13.7585 22.2704C13.0322 22.693 12.4517 23.3333 12.0961 24.1039C11.7406 24.8745 11.6273 25.7379 11.7717 26.5764C11.9162 27.4149 12.3113 28.1877 12.9032 28.7894C13.4952 29.391 14.2551 29.7923 15.0794 29.9385C15.9038 30.0847 16.7523 29.9687 17.5095 29.6063C18.2666 29.2438 18.8954 28.6527 19.3102 27.9133C19.725 27.174 19.9055 26.3225 19.8272 25.475L19.8483 25.4952C19.7895 24.7866 19.8834 24.0735 20.1234 23.4056C20.3635 22.7378 20.7439 22.1313 21.2382 21.6284C21.7325 21.1256 22.3286 20.7386 22.9851 20.4943C23.6415 20.2501 24.3425 20.1546 25.039 20.2144L25.018 20.1941C25.6985 20.2564 26.3836 20.1429 27.0095 19.8641C27.6355 19.5853 28.1822 19.1503 28.5989 18.5993C29.0156 18.0483 29.2888 17.3993 29.3933 16.7122C29.4978 16.0252 29.4301 15.3225 29.1966 14.6692C28.963 14.0159 28.5711 13.4331 28.0572 12.9749C27.5434 12.5167 26.9241 12.1978 26.2568 12.048C25.5896 11.8981 24.896 11.922 24.2402 12.1174C23.5844 12.3129 22.9878 12.6736 22.5055 13.1661H22.5022Z" fill="white"/>
<path d="M14.3446 19.0893L14.3236 19.0691C14.9156 19.1298 15.5134 19.0558 16.0739 18.8527C16.6343 18.6495 17.1434 18.3221 17.5643 17.8943C17.9851 17.4664 18.3073 16.9488 18.5074 16.3787C18.7075 15.8087 18.7806 15.2005 18.7214 14.5982L18.7424 14.6185C18.6836 13.9099 18.7776 13.1968 19.0176 12.5289C19.2577 11.8611 19.6381 11.2546 20.1324 10.7517C20.6266 10.2489 21.2228 9.86184 21.8793 9.61761C22.5357 9.37337 23.2367 9.27782 23.9332 9.33764L23.9122 9.31739C24.7454 9.397 25.5824 9.21317 26.3092 8.79099C27.0359 8.36881 27.617 7.72883 27.9731 6.95834C28.3292 6.18785 28.443 5.32436 28.299 4.48565C28.155 3.64694 27.7601 2.87384 27.1684 2.2718C26.5766 1.66976 25.8167 1.2681 24.9923 1.12159C24.1679 0.975074 23.3192 1.09085 22.5618 1.45313C21.8045 1.81541 21.1754 2.40655 20.7605 3.14591C20.3455 3.88528 20.1648 4.73689 20.243 5.58457L20.2231 5.56319C20.2821 6.27183 20.1883 6.98503 19.9483 7.65298C19.7083 8.32093 19.3279 8.92753 18.8336 9.43041C18.3393 9.93328 17.7431 10.3203 17.0865 10.5645C16.43 10.8087 15.729 10.9041 15.0324 10.844L15.0523 10.8654C14.4603 10.8047 13.8625 10.8787 13.302 11.0818C12.7416 11.285 12.2325 11.6124 11.8116 12.0402C11.3908 12.4681 11.0686 12.9857 10.8685 13.5558C10.6684 14.1258 10.5953 14.734 10.6545 15.3363L10.6346 15.316C10.6932 16.0246 10.5991 16.7376 10.359 17.4053C10.1188 18.0731 9.7384 18.6795 9.24419 19.1823C8.74998 19.6851 8.1539 20.0722 7.49753 20.3165C6.84116 20.5608 6.1403 20.6565 5.44384 20.5969L5.46375 20.6171C4.63053 20.5375 3.79346 20.7213 3.06671 21.1435C2.33996 21.5657 1.75891 22.2057 1.40282 22.9762C1.04672 23.7466 0.93292 24.6101 1.07693 25.4488C1.22094 26.2876 1.61575 27.0607 2.20752 27.6627C2.79928 28.2647 3.55919 28.6664 4.38358 28.8129C5.20798 28.9594 6.05673 28.8436 6.81407 28.4814C7.57142 28.1191 8.20047 27.528 8.61545 26.7886C9.03042 26.0492 9.21111 25.1976 9.13286 24.3499L9.15387 24.3702C9.09508 23.6616 9.18899 22.9485 9.42906 22.2806C9.66913 21.6127 10.0496 21.0062 10.5438 20.5034C11.0381 20.0006 11.6342 19.6135 12.2907 19.3693C12.9471 19.1251 13.6481 19.0295 14.3446 19.0893Z" fill="white"/>
<path d="M6.93338 16.8314C7.35251 16.4025 7.67341 15.8848 7.87316 15.3152C8.07292 14.7456 8.1466 14.1382 8.08896 13.5362L8.10997 13.5565C8.05113 12.8477 8.14509 12.1344 8.38529 11.4663C8.62548 10.7983 9.00612 10.1917 9.50062 9.68878C9.99513 9.1859 10.5916 8.79891 11.2483 8.55483C11.905 8.31075 12.6062 8.21546 13.3029 8.27562L13.2819 8.25538C14.1148 8.33476 14.9515 8.15084 15.678 7.72869C16.4044 7.30654 16.9851 6.66671 17.341 5.89646C17.6969 5.12621 17.8106 4.26303 17.6666 3.42463C17.5226 2.58624 17.1279 1.81344 16.5363 1.21162C15.9448 0.609797 15.1852 0.208255 14.3611 0.0617505C13.537 -0.0847541 12.6885 0.0309102 11.9314 0.392969C11.1743 0.755027 10.5454 1.34585 10.1305 2.08488C9.71554 2.82391 9.53475 3.67516 9.61279 4.52255L9.59288 4.5023C9.65168 5.2109 9.55776 5.92401 9.31769 6.59187C9.07763 7.25973 8.69719 7.86624 8.20294 8.36908C7.70868 8.87191 7.11252 9.25896 6.45606 9.50319C5.7996 9.74743 5.09866 9.84297 4.40216 9.78315L4.42206 9.80341C3.74151 9.74131 3.05656 9.855 2.43069 10.1339C1.80481 10.4128 1.25826 10.848 0.84169 11.399C0.425116 11.95 0.151993 12.5991 0.0476305 13.2861C-0.0567317 13.9731 0.011043 14.6757 0.244675 15.329C0.478307 15.9822 0.870237 16.5649 1.38415 17.023C1.89805 17.4812 2.51731 17.7999 3.18454 17.9497C3.85177 18.0996 4.54537 18.0756 5.20108 17.8801C5.85679 17.6846 6.45339 17.3239 6.93559 16.8314H6.93338Z" fill="white"/>
<path d="M41.1884 5.61045H44.4727V21.8704H41.1884V5.61045Z" fill="white"/>
<path d="M46.3327 16.3026C46.3281 15.1341 46.6644 13.9906 47.2992 13.0167C47.934 12.0429 48.8385 11.2826 49.8983 10.8322C50.9581 10.3818 52.1255 10.2615 53.2526 10.4866C54.3796 10.7117 55.4156 11.272 56.2294 12.0966C57.0432 12.9212 57.5981 13.973 57.8239 15.1187C58.0497 16.2644 57.9361 17.4525 57.4977 18.5325C57.0592 19.6125 56.3155 20.5358 55.3608 21.1855C54.4062 21.8352 53.2835 22.182 52.1349 22.182C51.3725 22.1908 50.616 22.045 49.9096 21.7529C49.2032 21.4609 48.5612 21.0285 48.021 20.4811C47.4807 19.9337 47.0532 19.2823 46.7633 18.5648C46.4734 17.8474 46.327 17.0783 46.3327 16.3026ZM54.6528 16.3026C54.6391 15.799 54.4798 15.3106 54.1948 14.8985C53.9097 14.4865 53.5116 14.1691 53.0502 13.986C52.5888 13.8028 52.0846 13.7622 51.6006 13.869C51.1166 13.9758 50.6743 14.2254 50.329 14.5866C49.9837 14.9478 49.7507 15.4046 49.6591 15.8997C49.5675 16.3949 49.6215 16.9066 49.8142 17.3707C50.0069 17.8349 50.3298 18.2309 50.7426 18.5094C51.1553 18.7878 51.6396 18.9363 52.1349 18.9363C52.4741 18.9455 52.8114 18.8831 53.1257 18.7531C53.44 18.6231 53.7245 18.4282 53.961 18.1807C54.1976 17.9333 54.3812 17.6386 54.5003 17.3154C54.6194 16.9922 54.6713 16.6473 54.6528 16.3026Z" fill="white"/>
<path d="M71.0267 10.7338V21.309C71.0267 25.0508 68.1582 26.6326 65.2466 26.6326C64.2214 26.7107 63.1949 26.5 62.2797 26.0237C61.3645 25.5474 60.5958 24.8239 60.0581 23.9326L62.8602 22.2844C63.0862 22.749 63.4464 23.1324 63.8924 23.3831C64.3384 23.6338 64.8491 23.7399 65.356 23.6873C65.68 23.733 66.01 23.7039 66.3215 23.6024C66.633 23.5008 66.918 23.3293 67.1555 23.1005C67.3931 22.8717 67.577 22.5915 67.6937 22.2806C67.8104 21.9697 67.8569 21.6361 67.8298 21.3045V20.2864C67.4452 20.7651 66.9557 21.1454 66.4005 21.3969C65.8453 21.6484 65.2399 21.7639 64.6328 21.7343C63.1884 21.6879 61.8184 21.0716 60.8128 20.0157C59.8072 18.9599 59.2448 17.5473 59.2448 16.0771C59.2448 14.6069 59.8072 13.1943 60.8128 12.1385C61.8184 11.0826 63.1884 10.4663 64.6328 10.4199C65.2399 10.3903 65.8453 10.5058 66.4005 10.7573C66.9557 11.0087 67.4452 11.3891 67.8298 11.8678V10.7316L71.0267 10.7338ZM67.8309 16.0788C67.853 15.5403 67.7161 15.0074 67.438 14.5487C67.1599 14.09 66.7532 13.7265 66.2702 13.5049C65.7873 13.2834 65.2503 13.2139 64.7282 13.3055C64.2062 13.3971 63.723 13.6455 63.3409 14.0188C62.9588 14.3921 62.6953 14.8732 62.5842 15.4002C62.4732 15.9272 62.5197 16.4759 62.7177 16.9758C62.9158 17.4756 63.2564 17.9038 63.6956 18.205C64.1349 18.5063 64.6527 18.667 65.1824 18.6663C65.5275 18.6908 65.8738 18.6415 66.199 18.5216C66.5242 18.4017 66.8211 18.2138 67.0706 17.97C67.3201 17.7263 67.5167 17.432 67.6476 17.1063C67.7786 16.7806 67.841 16.4305 67.8309 16.0788Z" fill="white"/>
<path d="M72.8867 16.3026C72.8821 15.1341 73.2185 13.9906 73.8533 13.0167C74.488 12.0429 75.3926 11.2826 76.4524 10.8322C77.5122 10.3818 78.6796 10.2615 79.8066 10.4866C80.9337 10.7117 81.9697 11.272 82.7835 12.0966C83.5973 12.9212 84.1522 13.973 84.378 15.1187C84.6037 16.2644 84.4902 17.4525 84.0517 18.5325C83.6133 19.6125 82.8696 20.5358 81.9149 21.1855C80.9602 21.8352 79.8375 22.182 78.689 22.182C77.9266 22.1908 77.1701 22.045 76.4637 21.7529C75.7573 21.4609 75.1153 21.0285 74.575 20.4811C74.0348 19.9337 73.6073 19.2823 73.3174 18.5648C73.0275 17.8474 72.8811 17.0783 72.8867 16.3026ZM81.2069 16.3026C81.1932 15.799 81.0339 15.3106 80.7488 14.8985C80.4638 14.4865 80.0657 14.1691 79.6043 13.986C79.1429 13.8028 78.6387 13.7622 78.1547 13.869C77.6707 13.9758 77.2284 14.2254 76.8831 14.5866C76.5378 14.9478 76.3047 15.4046 76.2132 15.8997C76.1216 16.3949 76.1756 16.9066 76.3683 17.3707C76.561 17.8349 76.8839 18.2309 77.2967 18.5094C77.7094 18.7878 78.1937 18.9363 78.689 18.9363C79.0281 18.9455 79.3655 18.8831 79.6798 18.7531C79.9941 18.6231 80.2785 18.4282 80.5151 18.1807C80.7517 17.9333 80.9353 17.6386 81.0544 17.3154C81.1734 16.9922 81.2254 16.6473 81.2069 16.3026Z" fill="white"/>
<path d="M86.0228 7.7491C86.0228 7.35259 86.1384 6.96499 86.3549 6.6353C86.5714 6.30562 86.8792 6.04865 87.2392 5.89692C87.5993 5.74518 87.9955 5.70548 88.3778 5.78283C88.76 5.86019 89.1112 6.05113 89.3867 6.3315C89.6623 6.61188 89.85 6.96909 89.9261 7.35798C90.0021 7.74688 89.9631 8.14997 89.8139 8.5163C89.6648 8.88263 89.4122 9.19573 89.0881 9.41602C88.7641 9.63631 88.3831 9.75389 87.9933 9.75389C87.4723 9.74862 86.9741 9.5357 86.6057 9.16087C86.2372 8.78604 86.028 8.27917 86.0228 7.7491ZM86.3545 10.7338H89.6399V21.8715H86.3501L86.3545 10.7338Z" fill="white"/>
<path d="M103.821 16.3027C103.859 17.0387 103.753 17.7752 103.511 18.4697C103.268 19.1641 102.893 19.8029 102.406 20.3493C101.92 20.8957 101.332 21.3389 100.677 21.6534C100.022 21.9679 99.3119 22.1476 98.5882 22.182C97.9796 22.2158 97.3712 22.1114 96.8071 21.8763C96.2431 21.6413 95.7375 21.2814 95.3271 20.823V26.3255H92.0428V10.7338H95.3271V11.7801C95.7377 11.3219 96.2434 10.9624 96.8074 10.7276C97.3714 10.4927 97.9797 10.3884 98.5882 10.4222C99.312 10.4564 100.022 10.636 100.677 10.9506C101.333 11.2651 101.921 11.7084 102.407 12.2549C102.893 12.8015 103.269 13.4405 103.511 14.1351C103.754 14.8298 103.859 15.5664 103.821 16.3027ZM100.537 16.3027C100.524 15.7814 100.36 15.2756 100.066 14.8485C99.7721 14.4214 99.3608 14.092 98.8837 13.9016C98.4066 13.7112 97.8849 13.6681 97.3838 13.7778C96.8828 13.8876 96.4247 14.1452 96.0669 14.5185C95.7091 14.8918 95.4674 15.3642 95.3722 15.8765C95.277 16.3889 95.3324 16.9184 95.5315 17.3989C95.7307 17.8793 96.0647 18.2893 96.4917 18.5776C96.9188 18.8659 97.4199 19.0196 97.9324 19.0196C98.2843 19.0355 98.6355 18.9756 98.963 18.8438C99.2905 18.7119 99.5869 18.5112 99.8328 18.2546C100.079 17.9981 100.269 17.6916 100.39 17.3552C100.511 17.0188 100.561 16.6601 100.537 16.3027Z" fill="white"/>
<path d="M113.956 18.5291C113.956 21.0908 111.767 22.182 109.403 22.182C108.448 22.27 107.489 22.0645 106.649 21.592C105.81 21.1195 105.13 20.4017 104.696 19.5315L107.541 17.8833C107.656 18.2856 107.903 18.6355 108.241 18.8746C108.579 19.1138 108.988 19.2277 109.399 19.1973C110.186 19.1973 110.581 18.9521 110.581 18.5077C110.581 17.2814 105.194 17.9283 105.194 14.0751C105.194 11.6462 107.209 10.4222 109.486 10.4222C110.342 10.3946 111.19 10.6012 111.94 11.0203C112.691 11.4394 113.318 12.0557 113.755 12.805L110.952 14.3417C110.829 14.05 110.625 13.8015 110.364 13.6273C110.103 13.453 109.798 13.3607 109.486 13.3619C108.917 13.3619 108.566 13.5869 108.566 13.9851C108.57 15.2553 113.956 14.4081 113.956 18.5291Z" fill="white"/>
<path d="M125.953 10.7338V21.8715H122.669V20.8241C122.29 21.2863 121.808 21.6504 121.264 21.8867C120.72 22.1229 120.129 22.2245 119.539 22.1831C117.327 22.1831 115.448 20.58 115.448 17.5705V10.7338H118.732V17.0812C118.704 17.3464 118.734 17.6146 118.819 17.867C118.903 18.1194 119.041 18.35 119.222 18.5427C119.404 18.7355 119.624 18.8857 119.868 18.983C120.112 19.0803 120.374 19.1224 120.636 19.1062C121.84 19.1062 122.672 18.394 122.672 16.8123V10.7372L125.953 10.7338Z" fill="white"/>
<path d="M144.785 15.0325V21.8704H141.501V15.3216C141.501 14.2079 140.975 13.4957 139.925 13.4957C138.83 13.4957 138.216 14.2754 138.216 15.5894V21.8704H134.933V15.3216C134.933 14.2079 134.408 13.4957 133.356 13.4957C132.262 13.4957 131.649 14.2754 131.649 15.5894V21.8704H128.365V10.7327H131.649V11.7565C131.989 11.3023 132.436 10.9421 132.949 10.7088C133.461 10.4755 134.023 10.3766 134.583 10.4211C135.145 10.3931 135.704 10.5137 136.207 10.7712C136.709 11.0287 137.138 11.4143 137.45 11.8903C137.814 11.3923 138.296 10.9963 138.851 10.7394C139.407 10.4824 140.017 10.3729 140.625 10.4211C143.138 10.4222 144.785 12.2481 144.785 15.0325Z" fill="white"/>
<path d="M147.563 10.6652C148.909 10.6652 150 9.55503 150 8.18561C150 6.81619 148.909 5.70606 147.563 5.70606C146.217 5.70606 145.126 6.81619 145.126 8.18561C145.126 9.55503 146.217 10.6652 147.563 10.6652Z" fill="white"/>
</svg>
